<svg xmlns="http://www.w3.org/2000/svg" width="25" height="23" fill="none"><path fill="url(#a)" fill-rule="evenodd" d="M23.57 3.22c.644 1.262.644 2.915.644 6.22v1.397c0 1.994 0 2.99-.239 3.804a5.901 5.901 0 0 1-4.002 4.002c-.813.239-1.81.239-3.804.239h-.724a5.901 5.901 0 0 0-3.362 1.077l-.062.045-3.082 2.2c-1.056.755-2.444-.335-1.962-1.54a1.3 1.3 0 0 0-1.207-1.782h-.71A4.451 4.451 0 0 1 .61 14.43V9.44c0-3.305 0-4.958.643-6.22A5.901 5.901 0 0 1 3.83.64c1.262-.642 2.915-.642 6.22-.642h4.72c3.306 0 4.958 0 6.22.643a5.901 5.901 0 0 1 2.58 2.579ZM9.218 9.164a1.422 1.422 0 0 1 2.353.556c.75 2.25 3.608 2.925 5.285 1.247l.902-.901a.885.885 0 1 0-1.252-1.252l-.901.901a1.422 1.422 0 0 1-2.354-.555c-.75-2.251-3.607-2.926-5.285-1.248l-.902.902a.885.885 0 1 0 1.252 1.252l.902-.902Z" clip-rule="evenodd"/><defs><linearGradient id="a" x1="12.411" x2="-1.752" y1="-.002" y2="28.619" gradientUnits="userSpaceOnUse"><stop stop-color="#444BFF"/><stop offset="1" stop-color="#DDDEFF"/></linearGradient></defs></svg>