<svg xmlns="http://www.w3.org/2000/svg" width="34" height="34" fill="none"><g clip-path="url(#a)"><path fill="url(#b)" d="M25.82.304H8.034A7.846 7.846 0 0 0 .189 8.15v17.784a7.846 7.846 0 0 0 7.846 7.846h17.784a7.846 7.846 0 0 0 7.846-7.846V8.15A7.846 7.846 0 0 0 25.82.304Z"/><path fill="url(#c)" d="M25.82.304H8.034A7.846 7.846 0 0 0 .189 8.15v17.784a7.846 7.846 0 0 0 7.846 7.846h17.784a7.846 7.846 0 0 0 7.846-7.846V8.15A7.846 7.846 0 0 0 25.82.304Z"/><path fill="#fff" d="M16.928 3.965c-3.551 0-3.997.016-5.392.08-1.392.063-2.342.283-3.174.607-.86.334-1.59.78-2.316 1.507a6.419 6.419 0 0 0-1.51 2.317c-.324.831-.544 1.782-.607 3.174-.062 1.394-.079 1.84-.079 5.392 0 3.551.016 3.996.08 5.39.063 1.393.284 2.343.607 3.174.334.86.78 1.59 1.508 2.317a6.401 6.401 0 0 0 2.316 1.509c.832.323 1.782.544 3.174.608 1.395.063 1.84.079 5.392.079 3.551 0 3.996-.016 5.39-.08 1.392-.063 2.344-.284 3.176-.607a6.394 6.394 0 0 0 2.315-1.51 6.417 6.417 0 0 0 1.509-2.315c.322-.832.542-1.783.608-3.174.062-1.395.079-1.84.079-5.391 0-3.552-.017-3.997-.08-5.392-.065-1.392-.285-2.342-.607-3.174a6.417 6.417 0 0 0-1.51-2.317 6.388 6.388 0 0 0-2.315-1.507c-.834-.324-1.784-.544-3.176-.608-1.395-.063-1.84-.079-5.392-.079h.004Zm-1.173 2.357h1.173c3.492 0 3.905.012 5.284.075 1.275.058 1.967.271 2.428.45.61.237 1.046.52 1.503.978.458.458.74.894.979 1.504.178.46.392 1.152.45 2.427.063 1.379.076 1.793.076 5.283s-.014 3.904-.076 5.282c-.058 1.275-.271 1.967-.45 2.428a4.044 4.044 0 0 1-.979 1.502c-.458.458-.892.74-1.503.978-.46.18-1.153.392-2.428.45-1.378.063-1.792.077-5.284.077s-3.905-.014-5.284-.076c-1.275-.06-1.967-.272-2.428-.451a4.05 4.05 0 0 1-1.504-.978 4.052 4.052 0 0 1-.979-1.503c-.179-.46-.392-1.153-.45-2.428-.063-1.378-.075-1.792-.075-5.284s.012-3.904.075-5.283c.058-1.275.271-1.967.45-2.428a4.05 4.05 0 0 1 .98-1.504 4.057 4.057 0 0 1 1.503-.978c.46-.18 1.153-.392 2.428-.451 1.206-.055 1.674-.07 4.111-.074v.004Zm8.153 2.17a1.57 1.57 0 1 0 0 3.14 1.57 1.57 0 0 0 0-3.14Zm-6.98 1.834a6.716 6.716 0 1 0 .001 13.432 6.716 6.716 0 0 0-.001-13.432Zm0 2.357a4.359 4.359 0 1 1 0 8.718 4.359 4.359 0 0 1 0-8.718Z"/></g><defs><radialGradient id="b" cx="0" cy="0" r="1" gradientTransform="matrix(0 -33.1773 30.8575 0 9.081 36.358)" gradientUnits="userSpaceOnUse"><stop stop-color="#FD5"/><stop offset=".1" stop-color="#FD5"/><stop offset=".5" stop-color="#FF543E"/><stop offset="1" stop-color="#C837AB"/></radialGradient><radialGradient id="c" cx="0" cy="0" r="1" gradientTransform="rotate(78.681 -4.366 -1.948) scale(14.8304 61.1316)" gradientUnits="userSpaceOnUse"><stop stop-color="#3771C8"/><stop offset=".128" stop-color="#3771C8"/><stop offset="1" stop-color="#60F" stop-opacity="0"/></radialGradient><clipPath id="a"><path fill="#fff" d="M.189.304h33.476V33.78H.189z"/></clipPath></defs></svg>